inDegrees=no
num_controls=7
num_derivatives=13
num_iterations=97
num_multipliers=7
num_parameters=0
num_slacks=7
num_states=26
objective=0.341484
objective_accelerations=0.018329
objective_balance=0.000732
objective_effort=0.016005
objective_height=0.304630
objective_ligament=0.001788
solver_duration=1010.130629
status=Solve_Succeeded
success=true
DataType=double
version=3
OpenSimVersion=4.5
endheader
time	/jointset/ground_pelvis/pelvis_tilt/value	/jointset/ground_pelvis/pelvis_tx/value	/jointset/ground_pelvis/pelvis_ty/value	/jointset/hip_r/hip_flexion_r/value	/jointset/hip_r/hip_adduction_r/value	/jointset/hip_r/hip_rotation_r/value	/jointset/back/lumbar_extension/value	/jointset/patellofemoral_r/patellar_flexion_r/value	/jointset/knee_r/knee_flexion_r/value	/jointset/knee_r/knee_adduction_r/value	/jointset/knee_r/knee_rotation_r/value	/jointset/ankle_r/ankle_angle_r/value	/jointset/subtalar_r/subtalar_angle_r/value	/jointset/ground_pelvis/pelvis_tilt/speed	/jointset/ground_pelvis/pelvis_tx/speed	/jointset/ground_pelvis/pelvis_ty/speed	/jointset/hip_r/hip_flexion_r/speed	/jointset/hip_r/hip_adduction_r/speed	/jointset/hip_r/hip_rotation_r/speed	/jointset/back/lumbar_extension/speed	/jointset/patellofemoral_r/patellar_flexion_r/speed	/jointset/knee_r/knee_flexion_r/speed	/jointset/knee_r/knee_adduction_r/speed	/jointset/knee_r/knee_rotation_r/speed	/jointset/ankle_r/ankle_angle_r/speed	/jointset/subtalar_r/subtalar_angle_r/speed	/forceset/tau_hip_flexion_r	/forceset/tau_hip_adduction_r	/forceset/tau_hip_rotation_r	/forceset/tau_knee_flexion_r	/forceset/tau_ankle_angle_r	/forceset/tau_subtalar_angle_r	/forceset/tau_lumbar_extension	lambda_cid13_p0	lambda_cid14_p0	lambda_cid14_p1	lambda_cid14_p2	lambda_cid14_p3	lambda_cid14_p4	lambda_cid14_p5	/jointset/ground_pelvis/pelvis_tilt/accel	/jointset/ground_pelvis/pelvis_tx/accel	/jointset/ground_pelvis/pelvis_ty/accel	/jointset/hip_r/hip_flexion_r/accel	/jointset/hip_r/hip_adduction_r/accel	/jointset/hip_r/hip_rotation_r/accel	/jointset/back/lumbar_extension/accel	/jointset/patellofemoral_r/patellar_flexion_r/accel	/jointset/knee_r/knee_flexion_r/accel	/jointset/knee_r/knee_adduction_r/accel	/jointset/knee_r/knee_rotation_r/accel	/jointset/ankle_r/ankle_angle_r/accel	/jointset/subtalar_r/subtalar_angle_r/accel	gamma_cid13_p0	gamma_cid14_p0	gamma_cid14_p1	gamma_cid14_p2	gamma_cid14_p3	gamma_cid14_p4	gamma_cid14_p5
1	0.02759798477207468	0.07673588667861171	0.8055372098289532	0.6936919216947866	-0.2427103344545254	-0.0970731447318989	-0.7852849271765258	1.062562246872824	1.062562246872823	-0.03085231959105058	0.1745213349750549	0.4362269333626195	0.1677050937506267	0.07038056293304283	0.01167507247147261	0.01147496631153546	-0.1076205839996822	-0.002331306920281345	-0.002493041465458101	0.01680332212397841	-0.01886611259535777	-0.01886611259535774	0.007210022627720219	-8.224108590952525e-05	0.01753602557916495	0.004455436175069565	-0.1699528213999475	0.04503835157610551	0.02373829772096495	-0.3484933528753156	-0.1057486234471452	-4.570395767300334e-05	0.2583084597922617	-3.640669665455566	-81.90302695432274	-14.71088634197036	3.167504217233213	11.09560353836468	-716.9060913061244	57.54009453866227	0.1855020902568169	0.0749708332677623	0.8041404063013585	-2.255172147733976	0.1332134995909337	-0.4007607641845777	1.078913548296681	-3.314524990874546	-3.314524990874474	0.5522750736384078	-0.001206726134663522	-1.422804584944745	-0.4520693243188043	2.492926402185481e-10	-1.55207055437372e-09	9.55942332704972e-09	-1.956545631969589e-09	1.876613474117354e-09	-5.833905236216731e-09	1.298942393898108e-08
1.01	0.02831018332740911	0.07685652790965439	0.8056920059264141	0.6925039618773051	-0.2427272356520228	-0.09711753805858767	-0.7850611152641932	1.062208290991487	1.062208290991488	-0.03075177903932948	0.1745206467089338	0.4363313431017603	0.167726647974302	0.07201473888965183	0.01246846257921467	0.01947871663484242	-0.129938635813251	-0.001053148939848218	-0.006381457986643072	0.02809331836762535	-0.05191873385881188	-0.05191873385881153	0.01290689078768339	-5.367534018531264e-05	0.003363087024874028	-0.0001440859455581326	-0.1700906181267184	0.04507755919142472	0.02374683264451532	-0.3483609699946436	-0.1059921261891349	-3.097728228823013e-05	0.2586828168076996	-3.652686942518158	-81.98932082609483	-14.71461276045969	3.162401703851236	10.99357552127635	-717.1393805780683	57.53846372988201	0.1457142451019181	0.0838167464824352	0.7976607694628954	-2.215209971976155	0.1244854551595062	-0.382256565902042	1.174181366161537	-3.299681421862519	-3.299681421862514	0.5797135774732806	0.005150358662218012	-1.411964169001282	-0.4638160751308237	9.913431227683837e-10	-8.899711431818297e-10	6.436642532482192e-09	5.930101085492187e-09	1.605897385277365e-09	-5.473703515037714e-09	8.433580438236884e-09
1.02	0.02903739142165742	0.0769855617711655	0.8059266732119315	0.6910938038869265	-0.2427314815681378	-0.09720069044445162	-0.7847203756486715	1.061523998751959	1.061523998751961	-0.03059400562794912	0.1745202965270173	0.4362945383196922	0.1677022224929319	0.07338247071581984	0.01335359856515546	0.02744920392285329	-0.152060218579133	0.0001997493561850925	-0.01024485330049244	0.040188862761784	-0.08493338423353312	-0.08493338423353276	0.0186565945595644	-1.46242449908299e-05	-0.01070687866264578	-0.004740504834028674	-0.1702284148534889	0.04511676680674395	0.02375536756806573	-0.3482285871139714	-0.1062356289311246	-1.625060690345123e-05	0.2590571738231379	-3.676129658382447	-82.08388303945431	-14.71389506587269	3.149860778236578	10.89505465129148	-717.5193395462751	57.57135292101115	0.1322132641686139	0.09332000890750941	0.7974877992421391	-2.21587833819661	0.1281615627109697	-0.395756522717458	1.240023178399025	-3.30693081312797	-3.306930813127962	0.5628421960217264	0.0008903437614002129	-1.402210011593342	-0.4514486778873724	2.087515143164628e-09	-9.054546045396407e-10	2.696143306516347e-09	1.550621538555959e-08	2.57983219822202e-09	-7.561422979419789e-09	3.277913869605076e-09
1.03	0.02977738193495152	0.07712387147304685	0.8062409164200554	0.6894629266752179	-0.2427232936704128	-0.09732230272370315	-0.784255360278849	1.060509652271742	1.060509652271743	-0.03037846220834905	0.1745202729627624	0.4361175023369342	0.1676318984690315	0.07461412974333813	0.0143202800003793	0.03539750943384901	-0.1741301180281407	0.001436825673289887	-0.01406927344183876	0.05287912679838012	-0.1179392468026857	-0.1179392468026849	0.02446090612314967	1.704671818282641e-07	-0.02468769268290794	-0.009318527006007464	-0.1701226667439329	0.04509711211422722	0.02376647776338024	-0.3479174498838682	-0.1063997611015542	-2.538277379997576e-05	0.2591343412223929	-3.711084421757995	-82.1354805239278	-14.71477310234593	3.136154062601712	10.84117179796014	-717.5790620007125	57.56806958657153	0.1184174401166286	0.1001336584936332	0.7932107391900934	-2.204779547620696	0.1213337963184659	-0.3745320582043551	1.293265355636767	-3.297914871830625	-3.297914871830751	0.5905476549869235	0.000317690107811763	-1.394123551466503	-0.4601101357334049	3.18730064864094e-09	-9.278521768418405e-10	-1.050659168749483e-09	2.509956915075564e-08	3.566467530572647e-09	-9.674121231409646e-09	-1.883873342576609e-09
